<svg width="63" height="56" viewBox="0 0 63 56" fill="none" xmlns="http://www.w3.org/2000/svg">
<path fill-rule="evenodd" clip-rule="evenodd" d="M17.8774 16.7497C20.1769 16.4307 22.5362 16.3234 24.9553 16.428C26.4215 18.1739 27.6549 20.1042 28.6551 22.219C32.3012 16.2135 35.9476 10.208 39.5937 4.20251C44.1072 -0.207425 49.201 -1.06537 54.8756 1.62872C47.0471 14.4977 39.2183 27.3666 31.3898 40.2356C26.7967 32.4418 22.2926 24.6133 17.8774 16.7497Z" fill="#294181"/>
<path fill-rule="evenodd" clip-rule="evenodd" d="M15.947 8.38491C15.947 10.5297 15.947 12.6745 15.947 14.8194C15.8934 17.6097 15.947 20.398 16.1078 23.1842C17.3103 23.4856 18.0073 24.2366 18.199 25.4363C18.199 28.5464 18.199 31.6561 18.199 34.7662C16.1615 34.7662 14.1239 34.7662 12.0863 34.7662C12.0327 31.6545 12.0864 28.5444 12.2472 25.4363C12.5578 24.3215 13.2549 23.5709 14.3384 23.1842C14.6594 20.4041 14.7667 17.6159 14.6601 14.8194C14.6601 12.7818 14.6601 10.7442 14.6601 8.70663C14.1471 4.63641 15.7557 1.7945 19.4859 0.180956C25.0614 0.0201263 30.6378 -0.033505 36.2156 0.0200942C36.0724 3.04446 34.5709 5.02843 31.7114 5.97198C26.4577 6.13281 21.2029 6.18644 15.947 6.13284C15.947 6.88352 15.947 7.63423 15.947 8.38491Z" fill="#FAB51F"/>
<path fill-rule="evenodd" clip-rule="evenodd" d="M14.6601 8.70667C14.6601 10.7442 14.6601 12.7818 14.6601 14.8194C11.3802 14.824 9.07448 16.3254 7.74303 19.3235C7.4704 14.0723 9.77609 10.5333 14.6601 8.70667Z" fill="#284081"/>
<path fill-rule="evenodd" clip-rule="evenodd" d="M15.947 8.38489C19.057 8.38489 22.167 8.38489 25.277 8.38489C25.1067 11.9325 23.2836 14.0237 19.8077 14.6585C18.5253 14.819 17.2384 14.8726 15.947 14.8194C15.947 12.6745 15.947 10.5297 15.947 8.38489Z" fill="#2F4584"/>
<path fill-rule="evenodd" clip-rule="evenodd" d="M24.9553 16.428C22.5362 16.3234 20.1769 16.4307 17.8774 16.7497C17.7026 16.7304 17.5954 16.6232 17.5556 16.428C20.0726 16.0033 22.5392 16.0033 24.9553 16.428Z" fill="#6B78A1"/>
<path fill-rule="evenodd" clip-rule="evenodd" d="M18.1991 25.4362C18.5189 28.5952 18.6261 31.8125 18.5208 35.0879C16.3156 35.1922 14.1708 35.085 12.0863 34.7662C14.1239 34.7662 16.1615 34.7662 18.1991 34.7662C18.1991 31.6561 18.1991 28.5463 18.1991 25.4362Z" fill="#FAD490"/>
<path d="M0 49.0192V45.8469H0.593704V47.1175H1.73674V45.8469H2.32833V49.0192H1.73674V47.6878H0.593704V49.0192H0Z" fill="#294181"/>
<path d="M4.4475 45.7861C4.90527 45.7861 5.29685 45.9483 5.62223 46.2725C5.94901 46.5954 6.1124 46.9868 6.1124 47.4467C6.1124 47.9024 5.94901 48.2916 5.62223 48.6145C5.29544 48.936 4.90387 49.0968 4.4475 49.0968C3.99113 49.0968 3.59884 48.9367 3.27065 48.6166C2.94387 48.2951 2.78048 47.9052 2.78048 47.4467C2.78048 46.9896 2.94316 46.5989 3.26854 46.2746C3.59532 45.949 3.98831 45.7861 4.4475 45.7861ZM4.4475 46.3564C4.1517 46.3564 3.89887 46.4619 3.68899 46.673C3.47912 46.8841 3.37418 47.1378 3.37418 47.4341C3.37418 47.7262 3.47982 47.9813 3.6911 48.1994C3.90239 48.416 4.15452 48.5244 4.4475 48.5244C4.74047 48.5244 4.9926 48.416 5.20389 48.1994C5.41517 47.9813 5.52081 47.7262 5.52081 47.4341C5.52081 47.135 5.41658 46.8806 5.20811 46.6709C4.99965 46.4612 4.74611 46.3564 4.4475 46.3564ZM4.15804 49.8872V49.3148H4.73273V49.8872H4.15804Z" fill="#294181"/>
<path d="M8.86964 48.1554H9.55631C9.43799 48.4391 9.23797 48.6683 8.95626 48.8431C8.68301 49.0122 8.38862 49.0968 8.0731 49.0968C7.61673 49.0968 7.22586 48.9332 6.90049 48.6061C6.57652 48.2777 6.41454 47.8856 6.41454 47.4299C6.41454 46.9812 6.57652 46.5954 6.90049 46.2725C7.22445 45.9483 7.60969 45.7861 8.0562 45.7861C8.38298 45.7861 8.68653 45.8735 8.96683 46.0482C9.24854 46.2215 9.45067 46.4564 9.57321 46.7527H8.89922C8.80062 46.6311 8.67667 46.5346 8.52736 46.4633C8.37805 46.3921 8.22241 46.3564 8.06043 46.3564C7.77167 46.3564 7.52377 46.464 7.31671 46.6793C7.11106 46.8946 7.00824 47.1518 7.00824 47.4509C7.00824 47.7374 7.11318 47.9883 7.32305 48.2036C7.53292 48.4174 7.78013 48.5244 8.06465 48.5244C8.21537 48.5244 8.35904 48.4929 8.49567 48.43C8.6323 48.3671 8.75695 48.2756 8.86964 48.1554Z" fill="#294181"/>
<path d="M12.1509 49.0192L10.9085 45.8469H11.5318L12.3938 48.2602L13.2537 45.8469H13.877L12.641 49.0192H12.1509Z" fill="#294181"/>
<path d="M14.1982 49.0192V45.8469H14.7919V49.0192H14.1982Z" fill="#294181"/>
<path d="M15.4109 49.0192V45.8469H17.1287V46.4172H16.0046V47.1469H17.0822V47.7172H16.0046V48.4489H17.1287V49.0192H15.4109ZM15.394 45.5618L16.0342 44.9705H16.4885L17.1202 45.5618H16.4927L16.2603 45.2871L16.0215 45.5618H15.394ZM15.9476 49.8474V49.2771H16.5244V49.8474H15.9476Z" fill="#294181"/>
<path d="M17.6632 49.0192V45.8469H18.3309L19.6619 48.1637V45.8469H20.2557V49.0192H19.5986L18.2569 46.7087V49.0192H17.6632Z" fill="#294181"/>
<path d="M21.8149 49.0192L23.1481 45.8469H23.6108L24.9567 49.0192H24.3038L23.9573 48.1994H22.8248L22.4699 49.0192H21.8149ZM22.5375 45.5618L23.1777 44.9705H23.6319L24.2658 45.5618H23.6383L23.4038 45.2871L23.165 45.5618H22.5375ZM23.0404 47.627H23.7249L23.3826 46.6667L23.0404 47.627ZM23.7862 44.6434V44.5742L23.7946 44.4862C23.7946 44.4848 23.7946 44.4841 23.7946 44.4841C23.796 44.4827 23.7967 44.4806 23.7967 44.4778C23.7996 44.4694 23.8024 44.461 23.8052 44.4526C23.8094 44.4428 23.8179 44.4275 23.8306 44.4065H23.8284C23.8383 44.3799 23.8524 44.3541 23.8707 44.3289C23.889 44.3024 23.9108 44.2751 23.9362 44.2472C23.9559 44.2276 23.9792 44.2094 24.0059 44.1926C24.0327 44.1745 24.0644 44.1577 24.101 44.1423C24.1855 44.1116 24.258 44.0962 24.3186 44.0962C24.3904 44.0962 24.4552 44.1081 24.513 44.1318C24.5707 44.1556 24.6236 44.1919 24.6715 44.2409C24.7658 44.3345 24.813 44.4484 24.813 44.5826C24.813 44.6357 24.7975 44.6896 24.7665 44.7441C24.737 44.7986 24.694 44.8503 24.6376 44.8992C24.5898 44.9439 24.5531 44.9915 24.5278 45.0418C24.5024 45.0921 24.4898 45.1438 24.4898 45.1969H24.1094C24.1094 45.148 24.1179 45.097 24.1348 45.0439C24.1531 44.9908 24.1806 44.937 24.2172 44.8824L24.401 44.6686C24.4235 44.6476 24.4348 44.6141 24.4348 44.5679C24.4348 44.526 24.4228 44.4918 24.3989 44.4652C24.375 44.4386 24.3461 44.4254 24.3123 44.4254C24.2757 44.4254 24.2468 44.4359 24.2256 44.4568C24.2059 44.4722 24.1911 44.496 24.1813 44.5281C24.1728 44.5603 24.1686 44.5987 24.1686 44.6434H23.7862Z" fill="#294181"/>
<path d="M25.2821 49.0192V45.8469H26.0913L26.9491 48.2728L27.8175 45.8469H28.6224V49.0192H28.0308V46.6395L27.2047 49.0192H26.7019L25.8758 46.6395V49.0192H25.2821Z" fill="#294181"/>
<path d="M30.7162 49.0192V46.4172H30.1268V45.8469H31.9058V46.4172H31.3078V49.0192H30.7162Z" fill="#294181"/>
<path d="M32.2079 49.0192V45.8469H32.8016V47.1175H33.9446V45.8469H34.5362V49.0192H33.9446V47.6878H32.8016V49.0192H32.2079Z" fill="#294181"/>
<path d="M35.9497 49.883V49.3106H36.5265V49.883H35.9497ZM37.3125 46.1069V47.8262C37.3125 48.0107 37.2998 48.1617 37.2745 48.2791C37.2407 48.4356 37.1759 48.5705 37.0801 48.6837C36.9787 48.8053 36.8512 48.9046 36.6977 48.9815C36.5455 49.0583 36.3899 49.0968 36.2307 49.0968C36.0828 49.0968 35.9349 49.0611 35.787 48.9898C35.6405 48.9186 35.5159 48.8249 35.4131 48.7089C35.3102 48.5915 35.2377 48.4531 35.1954 48.2937C35.1828 48.2336 35.1722 48.1672 35.1637 48.0946C35.1637 48.0638 35.1616 48.017 35.1574 47.9541C35.1546 47.8912 35.1532 47.8485 35.1532 47.8262V45.8469H35.7469V47.908L35.749 48.0149C35.749 48.0303 35.7497 48.047 35.7511 48.0652C35.7525 48.0834 35.7553 48.1022 35.7596 48.1218C35.7638 48.1623 35.78 48.2064 35.8082 48.2539C35.8504 48.3364 35.9089 48.4021 35.9835 48.451C36.0582 48.4999 36.1406 48.5244 36.2307 48.5244C36.3082 48.5244 36.3828 48.5055 36.4547 48.4678C36.5265 48.43 36.5864 48.3748 36.6343 48.3021C36.6723 48.2392 36.6977 48.163 36.7103 48.0736C36.7174 48.0079 36.7209 47.9254 36.7209 47.8262V45.8469H37.0484V45.589H37.6252V46.1069H37.3125Z" fill="#294181"/>
<path d="M40.2155 48.1554H40.9022C40.7839 48.4391 40.5838 48.6683 40.3021 48.8431C40.0289 49.0122 39.7345 49.0968 39.419 49.0968C38.9626 49.0968 38.5717 48.9332 38.2464 48.6061C37.9224 48.2777 37.7604 47.8856 37.7604 47.4299C37.7604 46.9812 37.9224 46.5954 38.2464 46.2725C38.5703 45.9483 38.9556 45.7861 39.4021 45.7861C39.7289 45.7861 40.0324 45.8735 40.3127 46.0482C40.5944 46.2215 40.7965 46.4564 40.9191 46.7527H40.2451C40.1465 46.6311 40.0225 46.5346 39.8732 46.4633C39.7239 46.3921 39.5683 46.3564 39.4063 46.3564C39.1175 46.3564 38.8696 46.464 38.6626 46.6793C38.4569 46.8946 38.3541 47.1518 38.3541 47.4509C38.3541 47.7374 38.459 47.9883 38.6689 48.2036C38.8788 48.4174 39.126 48.5244 39.4105 48.5244C39.5612 48.5244 39.7049 48.4929 39.8415 48.43C39.9782 48.3671 40.1028 48.2756 40.2155 48.1554Z" fill="#294181"/>
<path d="M43.108 49.0192H42.5143V45.8469H43.2685C43.3516 45.8469 43.4207 45.8476 43.4756 45.849C43.5291 45.8504 43.5798 45.8518 43.6277 45.8532C43.6601 45.8532 43.696 45.8567 43.7355 45.8637C43.7763 45.8693 43.8207 45.8791 43.8686 45.893C43.9573 45.914 44.0454 45.9538 44.1327 46.0126C44.2637 46.1006 44.3672 46.2166 44.4433 46.3606C44.5193 46.5032 44.5574 46.6534 44.5574 46.8114C44.5574 46.9721 44.525 47.1238 44.4602 47.2664C44.3954 47.4075 44.301 47.5264 44.1771 47.6228C44.0968 47.6885 43.9989 47.7367 43.8834 47.7675C43.8355 47.7815 43.789 47.7926 43.7439 47.801C43.6988 47.808 43.6531 47.8115 43.6066 47.8115C43.5319 47.8115 43.4636 47.8122 43.4016 47.8136C43.3397 47.815 43.2805 47.8164 43.2242 47.8178H43.108V49.0192ZM43.108 47.2454H43.3298C43.3566 47.2454 43.3918 47.2447 43.4355 47.2433C43.4777 47.2419 43.5066 47.2412 43.5221 47.2412C43.546 47.2412 43.57 47.2391 43.5939 47.2349C43.6193 47.2293 43.646 47.2216 43.6742 47.2119C43.7615 47.1839 43.8313 47.1343 43.8834 47.063C43.9369 46.9917 43.9637 46.9106 43.9637 46.8198C43.9637 46.7261 43.9355 46.6465 43.8791 46.5808C43.8242 46.5137 43.7503 46.4675 43.6573 46.4424C43.6249 46.4354 43.5995 46.4305 43.5812 46.4277C43.5643 46.4249 43.5432 46.4235 43.5179 46.4235L43.3404 46.4172H43.108V47.2454Z" fill="#294181"/>
<path d="M44.9398 49.0192V45.8469H45.5335V47.1175H46.6765V45.8469H47.2681V49.0192H46.6765V47.6878H45.5335V49.0192H44.9398Z" fill="#294181"/>
<path d="M47.621 49.0192L48.9542 45.8469H49.4169L50.7627 49.0192H50.1099L49.7634 48.1994H48.6309L48.2759 49.0192H47.621ZM48.821 45.5932L48.6034 45.1969L49.5774 44.6267L49.8077 45.0732L48.821 45.5932ZM48.8464 47.627H49.531L49.1887 46.6667L48.8464 47.627Z" fill="#294181"/>
<path d="M51.6818 49.0192H51.0881V45.8469H51.8424C51.9255 45.8469 51.9945 45.8476 52.0494 45.849C52.103 45.8504 52.1537 45.8518 52.2016 45.8532C52.234 45.8532 52.2699 45.8567 52.3093 45.8637C52.3502 45.8693 52.3945 45.8791 52.4424 45.893C52.5312 45.914 52.6192 45.9538 52.7065 46.0126C52.8375 46.1006 52.9411 46.2166 53.0171 46.3606C53.0932 46.5032 53.1312 46.6534 53.1312 46.8114C53.1312 46.9721 53.0988 47.1238 53.034 47.2664C52.9692 47.4075 52.8748 47.5264 52.7509 47.6228C52.6706 47.6885 52.5727 47.7367 52.4572 47.7675C52.4093 47.7815 52.3628 47.7926 52.3178 47.801C52.2727 47.808 52.2269 47.8115 52.1804 47.8115C52.1058 47.8115 52.0375 47.8122 51.9755 47.8136C51.9135 47.815 51.8544 47.8164 51.798 47.8178H51.6818V49.0192ZM51.6818 47.2454H51.9037C51.9304 47.2454 51.9656 47.2447 52.0093 47.2433C52.0516 47.2419 52.0804 47.2412 52.0959 47.2412C52.1199 47.2412 52.1438 47.2391 52.1678 47.2349C52.1931 47.2293 52.2199 47.2216 52.248 47.2119C52.3354 47.1839 52.4051 47.1343 52.4572 47.063C52.5107 46.9917 52.5375 46.9106 52.5375 46.8198C52.5375 46.7261 52.5093 46.6465 52.453 46.5808C52.3981 46.5137 52.3241 46.4675 52.2311 46.4424C52.1987 46.4354 52.1734 46.4305 52.1551 46.4277C52.1382 46.4249 52.1171 46.4235 52.0917 46.4235L51.9142 46.4172H51.6818V47.2454Z" fill="#294181"/>
<path d="M55.7089 49.0192L54.4665 45.8469H55.0898L55.9518 48.2602L56.8117 45.8469H57.435L56.199 49.0192H55.7089Z" fill="#294181"/>
<path d="M57.7562 49.0192V45.8469H58.3499V49.0192H57.7562Z" fill="#294181"/>
<path d="M58.9689 49.0192V45.8469H60.6867V46.4172H59.5626V47.1469H60.6402V47.7172H59.5626V48.4489H60.6867V49.0192H58.9689ZM58.952 45.5618L59.5922 44.9705H60.0465L60.6782 45.5618H60.0507L59.8183 45.2871L59.5795 45.5618H58.952ZM59.5056 49.8474V49.2771H60.0824V49.8474H59.5056Z" fill="#294181"/>
<path d="M61.5466 49.0192V46.4172H60.9571V45.8469H62.7361V46.4172H62.1382V49.0192H61.5466Z" fill="#294181"/>
<path d="M0.602699 55.1527H0.940418C1.0859 55.1527 1.19789 55.1495 1.27641 55.1431C1.39533 55.1335 1.50271 55.1134 1.59854 55.0826C1.69437 55.0518 1.79078 55.0014 1.88776 54.9313C2.01477 54.84 2.11349 54.7269 2.18392 54.592C2.2555 54.4561 2.2913 54.3123 2.2913 54.1604C2.2913 53.8525 2.15563 53.5982 1.8843 53.3975C1.79309 53.3327 1.69495 53.2834 1.58988 53.2494C1.50906 53.2239 1.41553 53.2059 1.30931 53.1952C1.20424 53.1846 1.08128 53.1793 0.940418 53.1793H0.602699V53.9788H1.06511V54.197H0.602699V55.1527ZM1.06511 55.3709H0.341183V54.197H0V53.9788H0.341183V52.9611H1.04606C1.16268 52.9611 1.2614 52.9654 1.34222 52.9739C1.42419 52.9813 1.50617 52.9956 1.58815 53.0169C1.76826 53.0615 1.93106 53.1379 2.07654 53.2462C2.22202 53.3535 2.33806 53.4888 2.42465 53.6523C2.51125 53.8159 2.55454 53.9852 2.55454 54.1604C2.55454 54.3324 2.51817 54.4949 2.44543 54.6478C2.37269 54.8007 2.26474 54.9382 2.12157 55.0603C1.98302 55.1771 1.81907 55.261 1.62971 55.3119C1.55928 55.3289 1.47442 55.3433 1.37512 55.3549C1.3324 55.3592 1.28276 55.3629 1.22618 55.3661C1.16961 55.3693 1.11592 55.3709 1.06511 55.3709Z" fill="#FAB51F"/>
<path d="M2.75025 55.3709L3.88117 52.9611H4.17213L5.29613 55.3709H5.0121L4.63281 54.5618H3.41356L3.03255 55.3709H2.75025ZM3.72877 52.203L4.43018 52.5566L4.31415 52.7445L3.61446 52.3989L3.72877 52.203ZM3.51574 54.3436H4.53063L4.02665 53.2382L3.51574 54.3436Z" fill="#FAB51F"/>
<path d="M6.87562 52.9213C7.25086 52.9213 7.57588 53.0413 7.85067 53.2812C8.12547 53.5212 8.26286 53.8132 8.26286 54.1572C8.26286 54.5044 8.12662 54.8007 7.85414 55.046C7.58281 55.2912 7.25663 55.4139 6.87562 55.4139C6.50499 55.4139 6.18286 55.2944 5.90922 55.0555C5.63096 54.8113 5.49183 54.5182 5.49183 54.1763C5.49183 53.8281 5.62692 53.5318 5.8971 53.2876C6.16843 53.0434 6.4946 52.9213 6.87562 52.9213ZM6.87908 53.1522C6.5708 53.1522 6.3064 53.252 6.08587 53.4517C5.86535 53.6513 5.75508 53.8928 5.75508 54.1763C5.75508 54.4513 5.86708 54.6876 6.09107 54.8851C6.31506 55.0826 6.57773 55.1813 6.87908 55.1813C7.18736 55.1813 7.45118 55.0821 7.67056 54.8835C7.88993 54.6839 7.99962 54.4418 7.99962 54.1572C7.99962 53.8812 7.8882 53.6449 7.66536 53.4485C7.44368 53.251 7.18158 53.1522 6.87908 53.1522Z" fill="#FAB51F"/>
<path d="M10.0294 55.3709V53.1793H9.4267V52.9611H10.8884V53.1793H10.2926V55.3709H10.0294Z" fill="#FAB51F"/>
<path d="M10.9525 55.3709L12.0834 52.9611H12.3744L13.4984 55.3709H13.2143L12.8351 54.5618H11.6158L11.2348 55.3709H10.9525ZM11.718 54.3436H12.7329L12.2289 53.2382L11.718 54.3436ZM12.0921 56V55.5891H12.3553V56H12.0921Z" fill="#FAB51F"/>
<path d="M15.0779 52.9213C15.4531 52.9213 15.7781 53.0413 16.0529 53.2812C16.3277 53.5212 16.4651 53.8132 16.4651 54.1572C16.4651 54.5044 16.3289 54.8007 16.0564 55.046C15.7851 55.2912 15.4589 55.4139 15.0779 55.4139C14.7072 55.4139 14.3851 55.2944 14.1115 55.0555C13.8332 54.8113 13.6941 54.5182 13.6941 54.1763C13.6941 53.8281 13.8292 53.5318 14.0993 53.2876C14.3707 53.0434 14.6968 52.9213 15.0779 52.9213ZM15.0813 53.1522C14.7731 53.1522 14.5086 53.252 14.2881 53.4517C14.0676 53.6513 13.9573 53.8928 13.9573 54.1763C13.9573 54.4513 14.0693 54.6876 14.2933 54.8851C14.5173 55.0826 14.78 55.1813 15.0813 55.1813C15.3896 55.1813 15.6534 55.0821 15.8728 54.8835C16.0922 54.6839 16.2019 54.4418 16.2019 54.1572C16.2019 53.8812 16.0904 53.6449 15.8676 53.4485C15.6459 53.251 15.3838 53.1522 15.0813 53.1522Z" fill="#FAB51F"/>
<path d="M17.6445 55.3709L18.7755 52.9611H19.0664L20.1904 55.3709H19.9064L19.5271 54.5618H18.3078L17.9268 55.3709H17.6445ZM18.2888 52.7445L18.8032 52.3336H19.03L19.5444 52.7445H19.2257L18.9175 52.5072L18.6092 52.7445H18.2888ZM18.41 54.3436H19.4249L18.9209 53.2382L18.41 54.3436ZM19.3123 52.1043H19.1236V52.082L19.1288 52.0358C19.1334 52.0177 19.1397 52.0018 19.1478 51.988C19.1617 51.9583 19.183 51.9285 19.2119 51.8988C19.2361 51.8765 19.2696 51.8563 19.3123 51.8383C19.3574 51.8245 19.3972 51.8176 19.4318 51.8176C19.5127 51.8176 19.5808 51.8436 19.6362 51.8956C19.6916 51.9466 19.7193 52.0098 19.7193 52.0851C19.7193 52.1457 19.6853 52.203 19.6172 52.2571C19.549 52.3113 19.515 52.3681 19.515 52.4276H19.3279C19.3279 52.3819 19.3458 52.3325 19.3816 52.2794L19.5063 52.1457C19.5236 52.1276 19.5323 52.1043 19.5323 52.0756C19.5323 52.0469 19.5219 52.0236 19.5011 52.0055C19.4815 51.9864 19.4572 51.9768 19.4284 51.9768C19.3961 51.9768 19.3701 51.9853 19.3504 52.0023C19.325 52.0236 19.3123 52.0575 19.3123 52.1043Z" fill="#FAB51F"/>
<path d="M20.5004 55.3709V52.9611H20.904L21.8617 55.0125L22.816 52.9611H23.2195V55.3709H22.958V53.2271L21.9725 55.3709H21.7491L20.7619 53.2271V55.3709H20.5004Z" fill="#FAB51F"/>
<path d="M25.1003 55.3709V53.1793H24.4976V52.9611H25.9594V53.1793H25.3636V55.3709H25.1003Z" fill="#FAB51F"/>
<path d="M26.2538 55.3709V52.9611H26.5153V54.0203H27.8748V52.9611H28.1363V55.3709H27.8748V54.2385H26.5153V55.3709H26.2538Z" fill="#FAB51F"/>
<path d="M30.4623 53.1793V54.4248C30.4623 54.5724 30.4513 54.6913 30.4294 54.7816C30.3993 54.9026 30.3445 55.0114 30.2648 55.1081C30.1863 55.2047 30.0847 55.2801 29.96 55.3342C29.8365 55.3873 29.7072 55.4139 29.5721 55.4139C29.4358 55.4139 29.3094 55.3894 29.1928 55.3406C29.0762 55.2918 28.9752 55.2201 28.8897 55.1256C28.8043 55.0311 28.746 54.9207 28.7148 54.7943C28.6905 54.6987 28.6784 54.5756 28.6784 54.4248V52.9611H28.9399V54.4248C28.9399 54.5289 28.9474 54.6218 28.9625 54.7035C28.9786 54.7842 29.0121 54.8617 29.0629 54.9361C29.1149 55.0104 29.1864 55.0698 29.2777 55.1144C29.3689 55.159 29.467 55.1813 29.5721 55.1813C29.6679 55.1813 29.758 55.1627 29.8423 55.1256C29.9277 55.0874 29.9981 55.0337 30.0535 54.9647C30.1101 54.8957 30.1505 54.8097 30.1748 54.7067C30.1909 54.6324 30.199 54.5384 30.199 54.4248V52.9611L30.4103 52.9595V52.7684H30.684V53.1793H30.4623ZM29.4387 56V55.5891H29.702V56H29.4387Z" fill="#FAB51F"/>
<path d="M33.4914 53.5807H33.2004C33.1057 53.448 32.9747 53.3434 32.8073 53.2669C32.6398 53.1905 32.4655 53.1522 32.2842 53.1522C31.9898 53.1522 31.7335 53.2531 31.5153 53.4549C31.2982 53.6566 31.1897 53.8907 31.1897 54.1572C31.1897 54.4375 31.2999 54.6786 31.5205 54.8803C31.7421 55.081 32.0031 55.1813 32.3033 55.1813C32.4811 55.1813 32.6502 55.142 32.8107 55.0635C32.9724 54.9838 33.1057 54.8766 33.2108 54.7417H33.5017C33.3886 54.9424 33.2218 55.1049 33.0012 55.2291C32.7807 55.3523 32.548 55.4139 32.3033 55.4139C31.9176 55.4139 31.5915 55.2933 31.3248 55.0523C31.0592 54.8102 30.9264 54.5119 30.9264 54.1572C30.9264 53.8164 31.0586 53.5255 31.323 53.2844C31.5874 53.0423 31.9067 52.9213 32.2808 52.9213C32.4205 52.9213 32.5544 52.9383 32.6826 52.9723C32.8107 53.0052 32.9291 53.0556 33.0376 53.1236C33.1311 53.1777 33.2183 53.2436 33.2991 53.3211C33.3926 53.4103 33.4567 53.4968 33.4914 53.5807Z" fill="#FAB51F"/>
<path d="M37.3604 53.5807H37.0694C36.9748 53.448 36.8437 53.3434 36.6763 53.2669C36.5089 53.1905 36.3345 53.1522 36.1533 53.1522C35.8589 53.1522 35.6025 53.2531 35.3843 53.4549C35.1673 53.6566 35.0587 53.8907 35.0587 54.1572C35.0587 54.4375 35.169 54.6786 35.3895 54.8803C35.6112 55.081 35.8721 55.1813 36.1723 55.1813C36.3501 55.1813 36.5193 55.142 36.6798 55.0635C36.8414 54.9838 36.9748 54.8766 37.0798 54.7417H37.3708C37.2576 54.9424 37.0908 55.1049 36.8703 55.2291C36.6498 55.3523 36.4171 55.4139 36.1723 55.4139C35.7867 55.4139 35.4605 55.2933 35.1938 55.0523C34.9282 54.8102 34.7955 54.5119 34.7955 54.1572C34.7955 53.8164 34.9277 53.5255 35.1921 53.2844C35.4565 53.0423 35.7757 52.9213 36.1498 52.9213C36.2895 52.9213 36.4235 52.9383 36.5516 52.9723C36.6798 53.0052 36.7981 53.0556 36.9067 53.1236C37.0002 53.1777 37.0873 53.2436 37.1682 53.3211C37.2617 53.4103 37.3258 53.4968 37.3604 53.5807Z" fill="#FAB51F"/>
<path d="M37.7951 55.3709V52.9611H38.0566V54.0203H39.4162V52.9611H39.6777V55.3709H39.4162V54.2385H38.0566V55.3709H37.7951Z" fill="#FAB51F"/>
<path d="M40.2198 52.9611H40.4813V54.4248C40.4813 54.5289 40.4888 54.6218 40.5038 54.7035C40.52 54.7842 40.5534 54.8617 40.6042 54.9361C40.6562 55.0104 40.7278 55.0698 40.819 55.1144C40.9102 55.159 41.0084 55.1813 41.1134 55.1813C41.2093 55.1813 41.2993 55.1627 41.3836 55.1256C41.469 55.0874 41.5395 55.0337 41.5949 54.9647C41.6515 54.8957 41.6919 54.8097 41.7161 54.7067C41.7323 54.6324 41.7404 54.5384 41.7404 54.4248V52.9611H42.0036V54.4248C42.0036 54.5724 41.9926 54.6913 41.9707 54.7816C41.9407 54.9026 41.8858 55.0114 41.8062 55.1081C41.7277 55.2047 41.6261 55.2801 41.5014 55.3342C41.3778 55.3873 41.2485 55.4139 41.1134 55.4139C40.9772 55.4139 40.8507 55.3894 40.7341 55.3406C40.6175 55.2918 40.5165 55.2201 40.4311 55.1256C40.3456 55.0311 40.2873 54.9207 40.2561 54.7943C40.2319 54.6987 40.2198 54.5756 40.2198 54.4248V52.9611Z" fill="#FAB51F"/>
<path d="M43.1917 55.3709V54.565L42.2807 52.9611H42.5682L43.3233 54.3133L44.0784 52.9611H44.3659L43.4549 54.565V55.3709H43.1917Z" fill="#FAB51F"/>
<path d="M44.643 55.3709V52.9611H46.0753V53.1793H44.9045V54.0473H46.0372V54.2655H44.9045V55.1527H46.0753V55.3709H44.643ZM44.6984 52.7445L45.2128 52.3336H45.4397L45.9541 52.7445H45.6354L45.3271 52.5072L45.0188 52.7445H44.6984Z" fill="#FAB51F"/>
<path d="M46.5446 55.3709V52.9611H46.8979L48.3666 54.9599V52.9611H48.6298V55.3709H48.3666L46.8062 53.251V55.3709H46.5446Z" fill="#FAB51F"/>
<path d="M50.1539 55.3709V52.9611H50.5072L51.9759 54.9599V52.9611H52.2391V55.3709H51.9759L50.4154 53.251V55.3709H50.1539Z" fill="#FAB51F"/>
<path d="M53.6766 54.2592H55.457C55.457 54.5798 55.3144 54.8548 55.0292 55.0842C54.7555 55.304 54.4357 55.4139 54.0697 55.4139C53.6887 55.4139 53.3591 55.2918 53.0808 55.0475C52.8037 54.8033 52.6651 54.5055 52.6651 54.154C52.6651 53.9927 52.7009 53.8371 52.7725 53.6874C52.8453 53.5377 52.9446 53.4049 53.0704 53.2892C53.2009 53.1692 53.3533 53.0779 53.5276 53.0153C53.702 52.9526 53.8827 52.9213 54.0697 52.9213C54.2071 52.9213 54.3405 52.9383 54.4698 52.9723C54.6003 53.0062 54.7238 53.0577 54.8404 53.1268C54.9385 53.1873 55.0275 53.2563 55.1071 53.3338C55.2006 53.4251 55.2641 53.5148 55.2976 53.603H54.9997C54.9097 53.4639 54.7786 53.354 54.6066 53.2733C54.52 53.2329 54.4328 53.2027 54.3451 53.1825C54.2585 53.1623 54.1667 53.1522 54.0697 53.1522C53.9265 53.1522 53.7874 53.1751 53.6523 53.2207C53.5184 53.2653 53.3966 53.3333 53.2869 53.4246C53.1784 53.5159 53.0912 53.6274 53.0254 53.7591C52.9607 53.8897 52.9284 54.0224 52.9284 54.1572C52.9284 54.4471 53.0421 54.6913 53.2696 54.8899C53.4913 55.0842 53.7614 55.1813 54.0801 55.1813C54.3191 55.1813 54.5391 55.116 54.74 54.9854C54.942 54.8548 55.0759 54.6855 55.1418 54.4774H53.6766V54.2592Z" fill="#FAB51F"/>
<path d="M55.8726 55.3709V52.9611H56.1341V54.0203H57.4937V52.9611H57.7552V55.3709H57.4937V54.2385H56.1341V55.3709H55.8726Z" fill="#FAB51F"/>
<path d="M58.2973 55.3709V52.9611H58.5588V55.3709H58.2973Z" fill="#FAB51F"/>
<path d="M59.1009 55.3709V52.9611H60.5331V53.1793H59.3624V54.0473H60.495V54.2655H59.3624V55.1527H60.5331V55.3709H59.1009ZM59.1563 52.7445L59.6707 52.3336H59.8975L60.4119 52.7445H60.0932L59.785 52.5072L59.4767 52.7445H59.1563ZM59.662 56V55.5891H59.9252V56H59.662Z" fill="#FAB51F"/>
<path d="M61.0025 55.3709V52.9611H61.69C61.8563 52.9611 61.9775 52.967 62.0537 52.9786C62.1831 52.9967 62.2956 53.0339 62.3915 53.0901C62.5023 53.1538 62.5872 53.2377 62.646 53.3418C62.7061 53.4458 62.7361 53.56 62.7361 53.6842C62.7361 53.7999 62.7119 53.9045 62.6634 53.998C62.6149 54.0914 62.5398 54.1726 62.4382 54.2416C62.3459 54.3043 62.2379 54.3478 62.1144 54.3722C62.0197 54.3903 61.9008 54.3993 61.7576 54.3993H61.264V55.3709H61.0025ZM61.264 54.1795H61.7143C61.8598 54.1795 61.9695 54.1716 62.0434 54.1556C62.1184 54.1397 62.1848 54.1153 62.2425 54.0824C62.3141 54.042 62.3707 53.9852 62.4122 53.912C62.4538 53.8376 62.4746 53.7606 62.4746 53.681C62.4746 53.5759 62.4463 53.4846 62.3897 53.4071C62.3332 53.3296 62.2523 53.2712 62.1473 53.2319C62.0953 53.2106 62.0376 53.1963 61.9741 53.1889C61.9417 53.1857 61.9088 53.183 61.8754 53.1809C61.8419 53.1788 61.8061 53.1777 61.768 53.1777L61.6848 53.1793H61.264V54.1795Z" fill="#FAB51F"/>
</svg>
